<svg width="60" height="54" viewBox="0 0 60 54" fill="none" xmlns="http://www.w3.org/2000/svg">
<path d="M59.9597 38.5583H54.5858C52.8258 36.7311 50.421 34.3129 48.6879 32.8619C44.2275 31.2632 33.9095 28.6568 31.5047 27.8238C25.6874 25.7817 24.7873 28.5762 26.1308 31.4512C27.6892 34.595 32.1496 35.2936 33.5737 35.9385C35.7367 36.9327 36.2606 36.8924 36.2606 38.0209C36.2234 38.2832 36.1318 38.5348 35.9919 38.7598C35.6765 39.291 35.2547 39.7514 34.753 40.112C34.2514 40.4727 33.6806 40.7258 33.0766 40.8556C29.5701 41.6483 25.8889 42.6828 25.5665 42.75L13.3945 38.8941C13.2602 38.7867 9.00134 33.1037 5.60233 32.7679C2.6601 32.4589 0.577698 33.6411 0 34.8637C3.84989 39.1725 7.95967 43.2419 12.3063 47.0491C13.7707 47.9627 29.3551 53.6859 31.3032 53.6859H60V38.5583H59.9597ZM31.2629 53.6859C30.7792 53.6859 31.7331 53.7531 31.2629 53.6859V53.6859Z" fill="#D1D3DA"/>
<path d="M23.9546 15.5441C23.9519 14.4429 24.2762 13.3657 24.8864 12.4489C25.4965 11.5322 26.365 10.8172 27.3819 10.3946C28.3988 9.97195 29.5182 9.86067 30.5984 10.0748C31.6786 10.289 32.6709 10.819 33.4496 11.5977C34.2282 12.3764 34.7582 13.3687 34.9724 14.4488C35.1866 15.529 35.0753 16.6485 34.6527 17.6653C34.23 18.6822 33.515 19.5507 32.5983 20.1609C31.6816 20.771 30.6044 21.0953 29.5032 21.0927C28.0316 21.0927 26.6203 20.5081 25.5797 19.4675C24.5392 18.427 23.9546 17.0157 23.9546 15.5441Z" fill="#D1D3DA"/>
<path d="M8.03395 5.56203C8.03395 4.46196 8.36017 3.3866 8.97133 2.47193C9.5825 1.55726 10.4512 0.844365 11.4675 0.423388C12.4838 0.00241203 13.6022 -0.107737 14.6811 0.106875C15.76 0.321486 16.7511 0.851219 17.5289 1.62908C18.3068 2.40695 18.8365 3.398 19.0511 4.47693C19.2657 5.55586 19.1556 6.67419 18.7346 7.69052C18.3136 8.70685 17.6007 9.57552 16.6861 10.1867C15.7714 10.7978 14.696 11.124 13.596 11.124C12.8651 11.1258 12.141 10.9832 11.4654 10.7043C10.7898 10.4254 10.1759 10.0158 9.65908 9.49892C9.14225 8.98209 8.73262 8.36823 8.45373 7.69262C8.17484 7.017 8.03218 6.29294 8.03395 5.56203Z" fill="#D1D3DA"/>
<path d="M10.0762 26.4132C10.0735 25.312 10.3978 24.2348 11.008 23.3181C11.6181 22.4013 12.4866 21.6864 13.5035 21.2637C14.5204 20.8411 15.6398 20.7298 16.72 20.944C17.8002 21.1582 18.7925 21.6882 19.5711 22.4668C20.3498 23.2455 20.8798 24.2378 21.094 25.318C21.3082 26.3982 21.1969 27.5176 20.7743 28.5345C20.3516 29.5514 19.6367 30.4199 18.7199 31.03C17.8032 31.6402 16.726 31.9645 15.6248 31.9618C14.1532 31.9618 12.7419 31.3772 11.7013 30.3367C10.6608 29.2961 10.0762 27.8848 10.0762 26.4132Z" fill="#D1D3DA"/>
</svg>
