<svg width="60" height="33" viewBox="0 0 60 33" fill="none" xmlns="http://www.w3.org/2000/svg">
<path fill-rule="evenodd" clip-rule="evenodd" d="M3.76998 3.66208H6.71216C10.7102 3.66208 14.587 5.27194 17.3484 8.07987L18.6993 9.45356H27.4834C31.0144 9.45356 33.9887 11.8105 34.8323 14.9909H18.7178V18.653H38.8378V16.8216C38.8378 15.8344 38.705 14.8798 38.451 13.9671H50.5415C53.1557 13.9671 54.5436 14.9657 55.2612 15.8597L22.3775 28.9228L3.76998 18.1667V3.66208ZM60 17.9346L59.6611 16.4318C59.1859 14.3104 56.6682 10.3044 50.5415 10.3044H36.6399C34.5707 7.56831 31.239 5.79082 27.4834 5.79082H20.3118L20.0721 5.54734C16.6007 2.0203 11.7338 0 6.71216 0H0V20.2482L22.068 33L60 17.9346Z" fill="#D1D3DA"/>
</svg>
