<svg width="21" height="22" viewBox="0 0 21 22" fill="none" xmlns="http://www.w3.org/2000/svg">
<path fill-rule="evenodd" clip-rule="evenodd" d="M17 16.5269H14.3328V11.9181C14.3328 11.2226 13.7113 10.6139 13.0004 10.6139C12.2887 10.6139 11.6664 11.2226 11.6664 11.9181V16.5269H9V8.70018H11.6664V9.74369C12.1108 9.04825 13.089 8.52686 13.8892 8.52686C15.5782 8.52686 17 9.91772 17 11.57V16.5269ZM6.49966 7.52686C5.66644 7.52686 5 6.86027 5 6.02686C5 5.19345 5.66644 4.52686 6.49966 4.52686C7.33288 4.52686 8 5.19345 8 6.02686C8 6.86027 7.33288 7.52686 6.49966 7.52686ZM5 17.5269H8V9.52686H5V17.5269ZM18.5481 0.526855H2.45186C1.09821 0.526855 0 1.62502 0 2.97938V19.0743C0 20.4287 1.09821 21.5269 2.45186 21.5269H18.5481C19.9025 21.5269 21 20.4287 21 19.0743V2.97938C21 1.62502 19.9025 0.526855 18.5481 0.526855Z" fill="black"/>
</svg>
