<svg width="31" height="41" viewBox="0 0 31 41" fill="none" xmlns="http://www.w3.org/2000/svg">
<path d="M22.7054 22.9504L22.6359 26.4236L19.3942 25.2659L17.9239 28.3686L15.4232 26.0532L12.8183 28.2876L11.4868 25.0807L8.18729 26.0763L8.26832 22.6031L4.86456 22.1631L6.33489 19.0604L3.39424 17.2775L5.99916 15.043L4.04257 12.2066L7.33055 11.2225L6.69379 7.85344L10.167 8.29339L10.9543 4.94752L13.8834 6.73043L15.9673 3.99816L17.9239 6.82305L20.934 5.16749L21.5708 8.5481L25.044 8.27023L24.2567 11.6045L27.4984 12.7623L25.4145 15.5061L27.9152 17.8216L24.9051 19.4656L26.2249 22.6378L22.7517 22.9157L22.7054 22.9504ZM15.5968 0.768066C13.5976 0.787712 11.6219 1.20154 9.78284 1.98587C7.94378 2.7702 6.2775 3.90962 4.87945 5.33887C3.48139 6.76811 2.37902 8.4591 1.63545 10.315C0.891881 12.1709 0.521722 14.1553 0.546182 16.1545C0.537024 18.6283 1.12093 21.0683 2.24897 23.27C3.377 25.4717 5.01633 27.3709 7.02955 28.8086V40.7681L15.5737 34.6899L24.1062 40.6639V28.8433C26.1195 27.4057 27.7588 25.5064 28.8868 23.3047C30.0148 21.103 30.5987 18.663 30.5896 16.1892C30.6125 14.1904 30.2413 12.2067 29.4972 10.3515C28.7531 8.49629 27.6506 6.80589 26.2529 5.37695C24.8551 3.94802 23.1895 2.80856 21.3511 2.02369C19.5128 1.23883 17.5377 0.823963 15.5389 0.802797L15.5968 0.768066Z" fill="#1A1F3A"/>
<path d="M20.2279 17.7635C20.1588 17.6235 20.0501 17.5067 19.9153 17.4278C19.7806 17.3543 19.6287 17.3183 19.4754 17.3236C19.3295 17.3196 19.1854 17.3557 19.0586 17.4278C18.9284 17.4984 18.8232 17.6076 18.7576 17.7404C18.6676 17.9263 18.6089 18.1258 18.5839 18.3308C18.5374 18.6178 18.518 18.9085 18.526 19.1991C18.5231 19.5204 18.5424 19.8415 18.5839 20.1601C18.6155 20.3666 18.6821 20.5663 18.7807 20.7505C18.85 20.8777 18.9545 20.9823 19.0817 21.0515C19.2145 21.104 19.3558 21.1315 19.4985 21.1326C19.6602 21.134 19.8196 21.0942 19.9616 21.0168C20.0892 20.9359 20.1899 20.8191 20.2511 20.681C20.3327 20.4977 20.3835 20.3021 20.4016 20.1022C20.4211 19.8169 20.4211 19.5307 20.4016 19.2455C20.4217 18.9486 20.4217 18.6508 20.4016 18.354C20.3673 18.151 20.309 17.9528 20.2279 17.7635ZM22.1729 20.5306C22.073 20.9066 21.8955 21.2576 21.6519 21.5609C21.4107 21.8556 21.1005 22.0863 20.7489 22.2324C20.3348 22.4047 19.889 22.4876 19.4406 22.4755C18.9809 22.4897 18.5233 22.4068 18.0977 22.2324C17.7598 22.0847 17.4621 21.8585 17.2294 21.5725C17.0034 21.2716 16.849 20.9232 16.7778 20.5537C16.6815 20.1283 16.6349 19.6932 16.6389 19.257C16.6364 18.8158 16.6909 18.3761 16.801 17.9488C16.8971 17.5736 17.0706 17.2226 17.3104 16.9184C17.5489 16.623 17.8546 16.3888 18.2019 16.2353C18.6203 16.0641 19.0697 15.9813 19.5217 15.9922C19.9979 15.9728 20.4726 16.0598 20.911 16.2469C21.2554 16.3998 21.5545 16.6391 21.7793 16.9415C21.9903 17.2496 22.1397 17.5956 22.2192 17.9604C22.2995 18.3605 22.3383 18.7679 22.335 19.176C22.3389 19.6326 22.2844 20.0878 22.1729 20.5306ZM12.2858 22.244C12.2338 22.3111 12.1757 22.3731 12.1121 22.4292C12.044 22.477 11.9701 22.5159 11.8922 22.545C11.7877 22.5827 11.6787 22.6061 11.568 22.6145H11.128C10.9624 22.629 10.7959 22.629 10.6302 22.6145C10.5323 22.6019 10.4399 22.5618 10.3639 22.4987C10.3409 22.4762 10.3228 22.4491 10.3109 22.4192C10.2989 22.3893 10.2933 22.3572 10.2945 22.325C10.318 22.2354 10.3616 22.1523 10.4218 22.0819L19.2322 10.0298C19.2842 9.96627 19.3423 9.9081 19.4059 9.85617C19.4718 9.80208 19.5461 9.75907 19.6259 9.72882C19.7343 9.69116 19.8472 9.66779 19.9616 9.65934H20.4247C20.5903 9.6448 20.7569 9.6448 20.9226 9.65934C21.0212 9.66917 21.1143 9.70966 21.1888 9.77512C21.2068 9.80052 21.2164 9.83085 21.2164 9.86194C21.2164 9.89304 21.2068 9.92337 21.1888 9.94877C21.17 10.0357 21.1346 10.1183 21.0846 10.1919L12.2858 22.244ZM9.32197 14.4061C9.2261 13.9767 9.17949 13.5378 9.18305 13.0978C9.18058 12.6566 9.23505 12.2169 9.34513 11.7896C9.44126 11.4144 9.61476 11.0634 9.85453 10.7592C10.0931 10.4638 10.3987 10.2296 10.746 10.0761C11.1644 9.90488 11.6138 9.82212 12.0658 9.83301C12.543 9.81686 13.0177 9.90784 13.4551 10.0993C13.8013 10.2437 14.1015 10.4799 14.3234 10.7823C14.5371 11.0889 14.6867 11.4354 14.7634 11.8012C14.8437 12.2052 14.8825 12.6164 14.8791 13.0284C14.888 13.4852 14.8334 13.9411 14.7171 14.3829C14.6121 14.757 14.4351 15.107 14.1961 15.4133C13.9568 15.7023 13.6508 15.9287 13.3046 16.0732C12.8899 16.2435 12.4445 16.3263 11.9964 16.3164C11.5328 16.3314 11.0712 16.2486 10.6418 16.0732C10.2986 15.9347 9.99882 15.7069 9.77349 15.4133C9.54399 15.1189 9.38908 14.7733 9.32197 14.4061ZM11.3249 14.6029C11.3943 14.7271 11.4991 14.8278 11.6259 14.8923C11.7574 14.949 11.8995 14.9767 12.0427 14.9734C12.2035 14.98 12.3633 14.9441 12.5058 14.8692C12.6337 14.7837 12.7342 14.6631 12.7952 14.5219C12.8757 14.3373 12.9303 14.1425 12.9573 13.943C12.9573 13.6999 12.9573 13.422 12.9573 13.0863C12.9589 12.792 12.9395 12.4979 12.8994 12.2064C12.865 11.9997 12.8067 11.7976 12.7257 11.6044C12.6609 11.4651 12.5561 11.3483 12.4247 11.2686C12.2855 11.1962 12.1301 11.1603 11.9732 11.1644C11.8274 11.1604 11.6832 11.1965 11.5564 11.2686C11.4259 11.3441 11.321 11.457 11.2554 11.5928C11.1637 11.7739 11.1049 11.9699 11.0817 12.1717C11.0362 12.4587 11.0168 12.7494 11.0239 13.04C11.0187 13.3655 11.042 13.6909 11.0933 14.0125C11.1199 14.2186 11.1826 14.4185 11.2786 14.6029H11.3249Z" fill="#1A1F3A"/>
</svg>
