<svg width="41" height="41" viewBox="0 0 41 41" fill="none" xmlns="http://www.w3.org/2000/svg">
<path d="M34.4155 25.4484C34.2053 25.0224 33.8747 24.6674 33.4648 24.4273C33.0552 24.2038 32.5932 24.0944 32.1269 24.1105C31.6833 24.0984 31.2449 24.2079 30.8593 24.4273C30.4634 24.6422 30.1435 24.9743 29.9438 25.378C29.6701 25.9434 29.4916 26.5502 29.4157 27.1737C29.2742 28.0465 29.2153 28.9307 29.2396 29.8145C29.2306 30.7916 29.2895 31.7681 29.4157 32.737C29.5118 33.3652 29.7142 33.9724 30.0142 34.5327C30.2249 34.9196 30.5428 35.2375 30.9297 35.4482C31.3334 35.6078 31.7631 35.6913 32.1972 35.6946C32.689 35.6991 33.1739 35.578 33.6057 35.3425C33.9936 35.0966 34.2999 34.7413 34.4859 34.3214C34.7341 33.7637 34.8887 33.1689 34.9436 32.5609C35.0031 31.6934 35.0031 30.8229 34.9436 29.9554C35.0049 29.0527 35.0049 28.1469 34.9436 27.2442C34.8395 26.6268 34.6622 26.0239 34.4155 25.4484ZM40.3308 33.8637C40.0269 35.0073 39.4872 36.0748 38.7464 36.9974C38.0128 37.8937 37.0694 38.5951 36 39.0396C34.7406 39.5636 33.3847 39.8155 32.0212 39.779C30.6229 39.822 29.2313 39.57 27.9368 39.0396C26.9093 38.5904 26.004 37.9023 25.2961 37.0326C24.609 36.1175 24.1394 35.0578 23.9229 33.9341C23.63 32.6404 23.4881 31.317 23.5003 29.9906C23.4928 28.6486 23.6585 27.3113 23.9932 26.0118C24.2856 24.8707 24.8133 23.8032 25.5425 22.8781C26.268 21.9797 27.1975 21.2675 28.2537 20.8007C29.5263 20.2799 30.893 20.0281 32.2677 20.0612C33.7162 20.0022 35.1596 20.2669 36.4929 20.8359C37.5404 21.3009 38.45 22.0287 39.1337 22.9485C39.7753 23.8854 40.2297 24.9376 40.4717 26.047C40.7158 27.264 40.8337 28.5029 40.8237 29.7441C40.8356 31.1327 40.6699 32.5171 40.3308 33.8637ZM10.2612 39.0748C10.1032 39.2787 9.92642 39.4674 9.73311 39.6382C9.5259 39.7834 9.3011 39.9017 9.06411 39.9903C8.74655 40.105 8.4149 40.176 8.07823 40.2015H6.74022C6.23651 40.2457 5.72992 40.2457 5.2262 40.2015C4.92834 40.1633 4.64745 40.0412 4.41633 39.8495C4.34632 39.781 4.29136 39.6986 4.25499 39.6076C4.21861 39.5167 4.20162 39.4192 4.20507 39.3213C4.27669 39.0487 4.40911 38.796 4.59239 38.5819L31.3874 1.92797C31.5454 1.7347 31.7223 1.55778 31.9156 1.39983C32.1161 1.23534 32.3421 1.10453 32.5846 1.01252C32.9143 0.898 33.2576 0.826935 33.6057 0.801211H35.0141C35.5178 0.757018 36.0244 0.757018 36.5281 0.801211C36.8282 0.831107 37.1114 0.954259 37.338 1.15334C37.3925 1.23058 37.4218 1.32283 37.4218 1.4174C37.4218 1.51198 37.3925 1.60422 37.338 1.68147C37.2807 1.94596 37.1731 2.19701 37.0211 2.42091L10.2612 39.0748ZM1.24742 15.2374C0.95584 13.9316 0.8141 12.5967 0.824916 11.2587C0.817394 9.91673 0.983075 8.57947 1.31786 7.27994C1.61021 6.13881 2.13787 5.0714 2.86707 4.14623C3.59255 3.24782 4.52206 2.53556 5.57827 2.06878C6.85091 1.54799 8.21757 1.29627 9.59224 1.3294C11.0435 1.28029 12.4872 1.557 13.8175 2.13922C14.8704 2.57843 15.7835 3.2967 16.4582 4.21661C17.108 5.14897 17.5631 6.20284 17.7962 7.31514C18.0405 8.54398 18.1585 9.79457 18.1484 11.0474C18.1752 12.4368 18.0093 13.8232 17.6554 15.167C17.3361 16.3047 16.7979 17.3691 16.0709 18.3007C15.3431 19.1795 14.4127 19.8683 13.3598 20.3077C12.0986 20.8257 10.744 21.0774 9.38099 21.0471C7.97108 21.0929 6.56736 20.841 5.26139 20.3077C4.21773 19.8865 3.3059 19.1935 2.62062 18.3007C1.92264 17.4053 1.45152 16.3543 1.24742 15.2374ZM7.33879 15.836C7.54996 16.2137 7.86859 16.5201 8.25423 16.7163C8.65412 16.8886 9.08648 16.9727 9.52181 16.9628C10.011 16.9829 10.4969 16.8736 10.9303 16.6458C11.3193 16.3858 11.6249 16.0191 11.8105 15.5896C12.0555 15.0284 12.2214 14.4359 12.3035 13.8291C12.3035 13.0896 12.3035 12.2446 12.3035 11.2235C12.3083 10.3284 12.2495 9.43421 12.1274 8.54752C12.0227 7.91883 11.8455 7.3044 11.5993 6.71657C11.4019 6.29306 11.0833 5.9377 10.6838 5.69549C10.2603 5.47521 9.78774 5.36613 9.31055 5.37856C8.86702 5.36646 8.42864 5.4761 8.04298 5.69549C7.64594 5.92498 7.32702 6.26845 7.12753 6.68138C6.84856 7.23229 6.66975 7.82839 6.5994 8.44189C6.46096 9.31501 6.40202 10.1989 6.42334 11.0827C6.40769 12.0728 6.47837 13.0624 6.63459 14.0403C6.71556 14.6673 6.90627 15.2751 7.19797 15.836H7.33879Z" fill="#1A1F3A"/>
</svg>
