<svg width="41" height="41" viewBox="0 0 41 41" fill="none" xmlns="http://www.w3.org/2000/svg">
<path d="M35.3081 6.98782C35.1878 6.85544 35.0396 6.75146 34.8741 6.68341C34.7087 6.61535 34.5302 6.58492 34.3515 6.59433C34.1728 6.60373 33.9985 6.65272 33.8411 6.73777C33.6837 6.82282 33.5472 6.94178 33.4415 7.08607L28.9783 12.5598C28.7489 12.8761 28.6254 13.2568 28.6254 13.6475C28.6254 14.0382 28.7489 14.4189 28.9783 14.7352C30.0012 16.1815 30.6252 17.8717 30.7879 19.6357C30.9505 21.3997 30.6458 23.1754 29.9046 24.7844C29.7385 25.1451 29.6832 25.5471 29.7456 25.9394C29.8081 26.3316 29.9855 26.6965 30.2555 26.9879L35.3783 31.9002C35.4986 32.0317 35.6474 32.1339 35.8133 32.1989C35.9793 32.2639 36.158 32.2899 36.3356 32.275C36.5132 32.2601 36.685 32.2046 36.8378 32.1129C36.9906 32.0211 37.1203 31.8955 37.2169 31.7458C39.7528 28.0131 40.9439 23.5289 40.5944 19.0298C40.245 14.5307 38.3759 10.2842 35.2941 6.98782H35.3081ZM27.9116 29.5844C27.6105 29.3318 27.2392 29.1775 26.8477 29.1424C26.4563 29.1072 26.0634 29.1929 25.7221 29.3879C24.1891 30.3002 22.4395 30.7849 20.6555 30.7914C17.9579 30.7877 15.3719 29.7144 13.4644 27.807C11.557 25.8995 10.4837 23.3135 10.48 20.6159C10.4791 20.0894 10.5213 19.5636 10.6063 19.044C10.6673 18.6585 10.6068 18.2636 10.4333 17.9141C10.2597 17.5645 9.98178 17.2776 9.6379 17.0931L3.23789 14.1598C3.07566 14.0809 2.89827 14.0382 2.71794 14.0344C2.5376 14.0307 2.3586 14.066 2.19323 14.138C2.02785 14.21 1.88003 14.317 1.75994 14.4516C1.63985 14.5862 1.55033 14.7452 1.49753 14.9177C0.601451 17.9015 0.416355 21.0536 0.957037 24.1218C1.49772 27.1899 2.74915 30.0889 4.61121 32.5866C6.47326 35.0844 8.89422 37.1115 11.6803 38.5058C14.4663 39.9001 17.54 40.6227 20.6555 40.616C25.1011 40.6291 29.4218 39.146 32.9222 36.4054C33.0646 36.2975 33.1813 36.1593 33.2639 36.0007C33.3464 35.8422 33.3927 35.6673 33.3994 35.4887C33.4061 35.3101 33.3731 35.1323 33.3027 34.968C33.2323 34.8037 33.1263 34.6571 32.9923 34.5388L27.9116 29.6545V29.5844ZM4.75369 10.9598L11.2239 13.9212C11.5968 14.0629 12.0032 14.0919 12.3924 14.0046C12.7817 13.9172 13.1367 13.7174 13.4134 13.4299C14.5494 12.2824 15.9386 11.4171 17.4695 10.9036C17.8536 10.7924 18.1943 10.5657 18.4453 10.2544C18.6963 9.94315 18.8456 9.56224 18.873 9.16327V2.06149C18.8796 1.88267 18.8463 1.70463 18.7756 1.54025C18.7049 1.37587 18.5985 1.22928 18.4642 1.11107C18.3299 0.992853 18.1709 0.905984 17.9989 0.856752C17.8269 0.80752 17.646 0.797156 17.4695 0.826406C14.8158 1.27228 12.2789 2.24762 10.0099 3.69435C7.74097 5.14108 5.78634 7.02961 4.26245 9.24748C4.16077 9.39243 4.09305 9.55842 4.06431 9.73314C4.03557 9.90785 4.04655 10.0868 4.09644 10.2567C4.14632 10.4266 4.23384 10.583 4.35248 10.7145C4.47113 10.8459 4.61783 10.9489 4.78174 11.0159L4.75369 10.9598ZM23.7011 10.8615L24.0239 10.9738C24.3993 11.0947 24.8015 11.1047 25.1824 11.0026C25.5633 10.9005 25.9067 10.6907 26.1713 10.3984L30.6485 4.88255C30.7679 4.75043 30.8558 4.59297 30.9056 4.42202C30.9554 4.25106 30.9658 4.07104 30.9361 3.89546C30.9064 3.71989 30.8373 3.55333 30.734 3.40828C30.6307 3.26324 30.4959 3.14347 30.3397 3.05798C28.2788 1.91315 26.0311 1.14331 23.7011 0.784302C23.5246 0.755052 23.3437 0.765417 23.1717 0.814649C22.9997 0.863881 22.8407 0.95075 22.7064 1.06896C22.5721 1.18717 22.4657 1.33377 22.395 1.49815C22.3243 1.66253 22.291 1.84057 22.2976 2.01939V9.03695C22.3258 9.43406 22.4756 9.81284 22.7267 10.1217C22.9779 10.4306 23.3181 10.6546 23.7011 10.7633V10.8615Z" fill="#1A1F3A"/>
</svg>
