<svg width="20" height="17" viewBox="0 0 20 17" fill="none" xmlns="http://www.w3.org/2000/svg">
<path fill-rule="evenodd" clip-rule="evenodd" d="M6.28994 16.5267C13.8372 16.5267 17.9647 10.3715 17.9647 5.0345C17.9647 4.85965 17.9609 4.68554 17.9534 4.51216C18.7539 3.94187 19.4509 3.23066 19.9995 2.42059C19.265 2.74225 18.4736 2.95842 17.6431 3.05654C18.4908 2.55634 19.1406 1.76545 19.4479 0.822579C18.6549 1.28516 17.7773 1.62085 16.8427 1.80234C16.0932 1.01809 15.0274 0.526733 13.847 0.526733C11.5813 0.526733 9.74356 2.33574 9.74356 4.56528C9.74356 4.88252 9.77954 5.19091 9.84999 5.48602C6.43909 5.31707 3.41566 3.71021 1.3913 1.26598C1.0398 1.86283 0.835937 2.55634 0.835937 3.29632C0.835937 4.69734 1.56069 5.93458 2.66243 6.65833C1.98864 6.63768 1.35608 6.45618 0.803709 6.15296C0.802959 6.16993 0.802959 6.1869 0.802959 6.20461C0.802959 8.16117 2.21724 9.79459 4.09545 10.1642C3.74993 10.2564 3.38718 10.3066 3.01319 10.3066C2.74937 10.3066 2.4923 10.2808 2.24197 10.2336C2.76436 11.8389 4.27907 13.0068 6.07483 13.0393C4.67105 14.1231 2.90152 14.7679 0.979088 14.7679C0.647816 14.7679 0.321041 14.7494 -0.000488281 14.7126C1.81626 15.8583 3.97253 16.5267 6.28994 16.5267Z" fill="black"/>
</svg>
